<?xml version="1.0" encoding="UTF-8"?>
<svg id="_Слой_1" data-name="Слой 1" xmlns="http://www.w3.org/2000/svg" viewBox="0 0 139.38 108.14">
  <defs>
    <style>
      .cls-1 {
        fill: #1b1c20;
      }

      .cls-2 {
        fill: #fff;
      }

      .cls-3 {
        fill: #e60004;
      }

      .cls-4 {
        fill: #0067b3;
      }
    </style>
  </defs>
  <g>
    <polygon class="cls-2" points="19.28 58.81 35.93 28.28 43.77 33.67 59.23 0 80.15 56.34 59.47 22.67 46.63 43.1 36.64 35.92 19.28 58.81"/>
    <polygon class="cls-2" points="77.06 41.75 79.72 48.69 86.81 29.41 104.1 49.5 104.1 45.69 116.7 58.83 101.48 36.93 101.48 42.32 83.72 20.65 77.06 41.75"/>
  </g>
  <g>
    <path class="cls-2" d="M139.37,60.67c-7.22-2.97-14.45,2.99-21.67,0v-9.95c7.22,2.98,14.45-2.98,21.67,0v9.95Z"/>
    <path class="cls-3" d="M139.37,60.67c-7.22-2.97-14.45,2.99-21.67,0v-5.14c7.22,2.98,14.45-2.98,21.67,0v5.14Z"/>
    <path class="cls-4" d="M117.7,57.34c7.23,2.98,14.45-2.98,21.68,0v-3.35c-7.23-2.98-14.46,2.98-21.68,0v3.35Z"/>
  </g>
  <g>
    <path class="cls-2" d="M8.72,106.33v-6.55h2.83c1.16,0,1.88,.61,1.88,1.59,0,.68-.33,1.19-.86,1.38,.86,.14,1.42,.79,1.42,1.75,0,1.09-.81,1.82-2.15,1.82h-3.12Zm.69-3.78h2.03c.83,0,1.31-.37,1.31-1.06s-.48-1.08-1.31-1.08h-2.03v2.14Zm0,3.15h2.31c.97,0,1.53-.47,1.53-1.28s-.56-1.26-1.53-1.26h-2.31v2.54Z"/>
    <path class="cls-2" d="M17.73,105.49c-.64-.64-.95-1.45-.95-2.43s.32-1.79,.95-2.42c.65-.65,1.44-.96,2.4-.96,.71,0,1.32,.16,1.83,.49v.71c-.57-.36-1.18-.55-1.82-.55-.76,0-1.38,.26-1.9,.79-.51,.51-.77,1.17-.77,1.96s.25,1.45,.77,1.96c.51,.51,1.16,.78,1.92,.78s1.4-.21,1.95-.65v.72c-.53,.38-1.19,.58-1.97,.58-.96,0-1.76-.32-2.4-.95Z"/>
    <path class="cls-2" d="M25.18,106.33v-6.55h4.49v.63h-3.8v2.1h3.11v.63h-3.11v2.57h3.94v.63h-4.63Z"/>
    <path class="cls-2" d="M32.85,106.33v-6.55h4.39v.63h-3.69v5.92h-.69Z"/>
    <path class="cls-2" d="M38.76,107.79v-2.09h.62c.4-.57,.69-1.23,.87-1.99,.18-.76,.27-1.8,.27-3.14v-.79h4.04v5.92h.99v2.09h-.65v-1.46h-5.5v1.46h-.65Zm5.11-2.09v-5.29h-2.67v.44c0,2.23-.35,3.84-1.05,4.85h3.71Z"/>
    <path class="cls-2" d="M47.82,106.33l2.92-6.58h.65l2.93,6.58h-.73l-.81-1.81h-3.43l-.79,1.81h-.72Zm1.75-2.41h2.97l-1.49-3.3-1.49,3.3Z"/>
    <path class="cls-2" d="M61.34,106.33v-6.55h.69v2.72h3.89v-2.72h.69v6.55h-.69v-3.2h-3.89v3.2h-.69Z"/>
    <path class="cls-2" d="M69.49,106.33l2.92-6.58h.65l2.93,6.58h-.73l-.81-1.81h-3.43l-.79,1.81h-.72Zm1.75-2.41h2.97l-1.49-3.3-1.49,3.3Z"/>
    <path class="cls-2" d="M83,106.33v-6.55h2.83c1.16,0,1.88,.61,1.88,1.59,0,.68-.33,1.19-.86,1.38,.86,.14,1.42,.79,1.42,1.75,0,1.09-.81,1.82-2.15,1.82h-3.12Zm.69-3.78h2.03c.83,0,1.31-.37,1.31-1.06s-.48-1.08-1.31-1.08h-2.03v2.14Zm0,3.15h2.31c.97,0,1.53-.47,1.53-1.28s-.56-1.26-1.53-1.26h-2.31v2.54Z"/>
    <path class="cls-2" d="M91.47,106.33v-6.55h.69v2.44h1.72c.74,0,1.31,.19,1.72,.57,.42,.38,.63,.88,.63,1.49,0,1.24-.88,2.05-2.35,2.05h-2.41Zm.69-.63h1.67c1.08,0,1.7-.51,1.7-1.42s-.62-1.43-1.7-1.43h-1.67v2.85Zm5.07,.63v-6.55h.69v6.55h-.69Z"/>
    <path class="cls-2" d="M102.13,105.49c-.64-.64-.95-1.45-.95-2.43s.32-1.79,.95-2.42,1.44-.96,2.4-.96c.71,0,1.32,.16,1.83,.49v.71c-.57-.36-1.18-.55-1.82-.55-.76,0-1.38,.26-1.9,.79-.51,.51-.77,1.17-.77,1.96s.25,1.45,.77,1.96,1.16,.78,1.92,.78,1.4-.21,1.95-.65v.72c-.53,.38-1.19,.58-1.97,.58-.96,0-1.76-.32-2.4-.95Z"/>
    <path class="cls-2" d="M112.43,99.67c.94,0,1.72,.33,2.35,.97,.63,.65,.94,1.45,.94,2.41s-.32,1.78-.94,2.42c-.63,.65-1.4,.96-2.35,.96s-1.73-.32-2.36-.96c-.63-.64-.94-1.46-.94-2.42s.31-1.77,.94-2.41c.63-.64,1.41-.97,2.36-.97Zm0,6.13c.73,0,1.35-.26,1.84-.79,.5-.52,.75-1.18,.75-1.95s-.25-1.43-.75-1.96c-.5-.52-1.11-.79-1.84-.79s-1.35,.26-1.84,.79c-.5,.52-.75,1.18-.75,1.96s.25,1.43,.75,1.95c.5,.52,1.11,.79,1.84,.79Z"/>
    <path class="cls-2" d="M120.12,106.33v-5.92h-2.25v-.63h5.23v.63h-2.28v5.92h-.69Z"/>
    <path class="cls-2" d="M126.03,106.33v-6.55h4.49v.63h-3.8v2.1h3.12v.63h-3.12v2.57h3.94v.63h-4.63Z"/>
  </g>
  <g>
    <g>
      <path class="cls-1" d="M28.7,79.31c0,4.09-1.38,7.5-4.13,10.23-2.76,2.72-6.16,4.09-10.22,4.09s-7.46-1.36-10.22-4.09C1.38,86.82,0,83.41,0,79.31s1.38-7.5,4.13-10.22c2.75-2.72,6.16-4.08,10.22-4.08s7.46,1.36,10.22,4.08,4.13,6.13,4.13,10.22Zm-5.65,0c0-2.85-.8-5.13-2.4-6.85-1.6-1.72-3.7-2.58-6.3-2.58s-4.71,.86-6.3,2.58c-1.6,1.72-2.39,4.01-2.39,6.85s.8,5.09,2.4,6.83c1.6,1.75,3.7,2.62,6.29,2.62s4.69-.87,6.29-2.62c1.6-1.75,2.4-4.02,2.4-6.83Z"/>
      <path class="cls-1" d="M30.25,93.58l12.01-27.76,12.03,27.76h-5.64l-6.39-16.25-6.37,16.25h-5.64Z"/>
      <path class="cls-1" d="M79.56,92.52h-5.31v-16.44l-16.96,18.08v-28.36h5.29v16.75l16.98-18.04v28.03Z"/>
      <path class="cls-1" d="M113.98,92.52h-5.32l-2.15-13.3-7.88,14.94-7.89-14.95-2.05,13.32h-5.32l4.92-28.02,10.34,19.7,10.32-19.71,5.03,28.03Z"/>
      <path class="cls-1" d="M139.38,92.52h-5.31v-22.05h-11.06v22.05h-5.31v-26.69h21.68v26.69Z"/>
    </g>
    <g>
      <path class="cls-2" d="M28.7,79.31c0,4.09-1.38,7.5-4.13,10.23-2.76,2.72-6.16,4.09-10.22,4.09s-7.46-1.36-10.22-4.09C1.38,86.82,0,83.41,0,79.31s1.38-7.5,4.13-10.22c2.75-2.72,6.16-4.08,10.22-4.08s7.46,1.36,10.22,4.08,4.13,6.13,4.13,10.22Zm-5.65,0c0-2.85-.8-5.13-2.4-6.85-1.6-1.72-3.7-2.58-6.3-2.58s-4.71,.86-6.3,2.58c-1.6,1.72-2.39,4.01-2.39,6.85s.8,5.09,2.4,6.83c1.6,1.75,3.7,2.62,6.29,2.62s4.69-.87,6.29-2.62c1.6-1.75,2.4-4.02,2.4-6.83Z"/>
      <path class="cls-2" d="M30.25,93.58l12.01-27.76,12.03,27.76h-5.64l-6.39-16.25-6.37,16.25h-5.64Z"/>
      <path class="cls-2" d="M79.56,92.52h-5.31v-16.44l-16.96,18.08v-28.36h5.29v16.75l16.98-18.04v28.03Z"/>
      <path class="cls-2" d="M113.98,92.52h-5.32l-2.15-13.3-7.88,14.94-7.89-14.95-2.05,13.32h-5.32l4.92-28.02,10.34,19.7,10.32-19.71,5.03,28.03Z"/>
      <path class="cls-2" d="M139.38,92.52h-5.31v-22.05h-11.06v22.05h-5.31v-26.69h21.68v26.69Z"/>
    </g>
  </g>
</svg>